<?xml version="1.0" encoding="utf-8"?>
<!-- Generator: Adobe Illustrator 28.3.0, SVG Export Plug-In . SVG Version: 6.00 Build 0)  -->
<svg version="1.1" id="Ebene_1" xmlns="http://www.w3.org/2000/svg" xmlns:xlink="http://www.w3.org/1999/xlink" x="0px" y="0px"
	 viewBox="0 0 251 391.1" style="enable-background:new 0 0 251 391.1;" xml:space="preserve">
<style type="text/css">
	.st0{fill:#FFC0BD;}
</style>
<path class="st0" d="M153.8,381.3c-96.8,0-142.9,0-142.9,0V10.1c0,0,46.1,0,142.9,0c107,0,121,181.9,15,181.9c-54,0-64.8-46.9-45-68
	c15-16,1-27-9.6-27.1c-7.9-0.1-11,6.5-4.6,11.3c5.3,4,10.3,7.9,8.3,11.9c-4.6,9.2-23.1,36.3-22,75.7c-1.1,39.4,17.4,66.5,22,75.7
	c2,4-3,7.9-8.3,11.9c-6.4,4.8-3.3,11.3,4.6,11.3c10.6-0.1,24.6-11.1,9.6-27.1c-19.8-21.1-9-68,45-68
	C274.8,199.4,260.8,381.3,153.8,381.3z"/>
</svg>
