<?xml version="1.0" encoding="utf-8"?>
<!-- Generator: Adobe Illustrator 28.3.0, SVG Export Plug-In . SVG Version: 6.00 Build 0)  -->
<svg version="1.1" id="Ebene_1" xmlns="http://www.w3.org/2000/svg" xmlns:xlink="http://www.w3.org/1999/xlink" x="0px" y="0px"
	 viewBox="0 0 100 100" style="enable-background:new 0 0 100 100;" xml:space="preserve">
<style type="text/css">
	.st0{fill:#F91C41;}
</style>
<path class="st0" d="M82.2,61.3c-8.2,3.5-16,6.6-19.4,1.6c-1.4-2.2-3.2-5.3-5.6-9.1c3.3,0,6.5,0.4,9.7,1.1
	c28.7,6.7,32.1-17,25.1-29.4c-5.2-9.3-14.9-8.5-16.2,2.2c-1.1,8.8-2.3,17.2-8.2,17.6c-2.6,0.2-6.2,0.2-10.7,0.2
	c1.6-2.8,3.6-5.5,5.8-7.9C83,16.2,64.2,1.5,50,1.3C39.3,1.2,35.2,10,43.7,16.4c7.1,5.3,13.8,10.6,11.1,15.9
	c-1.1,2.3-2.9,5.5-5.1,9.4c-1.6-2.9-3-5.8-3.9-9c-8.5-28.2-30.7-19.3-38-7c-5.5,9.2,0.1,17.2,10,13c8.2-3.5,16-6.6,19.4-1.6
	c1.4,2.2,3.2,5.3,5.6,9.1c-3.3,0-6.5-0.4-9.7-1.1C4.3,38.3,0.9,62,7.9,74.4c5.2,9.3,14.9,8.5,16.2-2.2c1.1-8.8,2.3-17.2,8.2-17.6
	c2.6-0.2,6.2-0.2,10.7-0.2c-1.6,2.8-3.6,5.5-5.8,7.9C17,83.8,35.8,98.5,50,98.7c10.7,0.1,14.8-8.7,6.2-15.1
	C49.1,78.3,42.5,73,45.2,67.6c1.1-2.3,2.9-5.5,5.1-9.4c1.6,2.9,3,5.8,3.9,9c8.5,28.2,30.7,19.3,38,7C97.7,65.1,92.1,57.2,82.2,61.3z
	"/>
</svg>
